<svg xmlns="http://www.w3.org/2000/svg" viewBox="0 0 1200 420"><rect width="100%" height="100%" rx="18" fill="#0b0c10"/>
<defs><marker id="a" viewBox="0 0 10 10" refX="9" refY="5" markerWidth="8" markerHeight="8" orient="auto-start-reverse"><path d="M0 0L10 5L0 10z" fill="#c8f560"/></marker><style>.b{fill:#12141a;stroke:#23262f;stroke-width:2}.t{font-family:Inter Tight,system-ui,sans-serif;fill:#ecedf1;font-size:22px;text-anchor:middle}.s{font-family:JetBrains Mono,ui-monospace,monospace;fill:#a3a9b6;font-size:15px;text-anchor:middle}.l{stroke:#c8f560;stroke-width:2;fill:none;marker-end:url(#a)}.d{stroke:#7aa2ff;stroke-width:2;fill:none;stroke-dasharray:8 6;marker-end:url(#a)}</style></defs>
<rect class="b" x="20" y="40" width="200" height="60" rx="12"/><text class="t" x="120" y="78">Dallas CAD</text><rect class="b" x="20" y="110" width="200" height="60" rx="12"/><text class="t" x="120" y="148">Tarrant CAD</text><rect class="b" x="20" y="180" width="200" height="60" rx="12"/><text class="t" x="120" y="218">Permits + violations</text><rect class="b" x="20" y="250" width="200" height="60" rx="12"/><text class="t" x="120" y="288">Crime + clerk</text><rect class="b" x="20" y="320" width="200" height="60" rx="12"/><text class="t" x="120" y="358">EPA + FEMA</text><path class="l" d="M220 70 L300 210"/><path class="l" d="M220 140 L300 210"/><path class="l" d="M220 210 L300 210"/><path class="l" d="M220 280 L300 210"/><path class="l" d="M220 350 L300 210"/><rect class="b" x="300" y="160" width="220" height="100" rx="12"/><text class="t" x="410" y="206">Orchestrator</text><text class="s" x="410" y="232">discover → write, sync_log</text><path class="l" d="M520 210 L580 210"/><rect class="b" x="580" y="160" width="220" height="100" rx="12"/><text class="t" x="690" y="206">PostGIS</text><text class="s" x="690" y="232">parcels, owners, entities</text><path class="l" d="M800 210 L860 210"/><rect class="b" x="860" y="160" width="320" height="100" rx="12"/><text class="t" x="1020" y="206">FastAPI routes</text><text class="s" x="1020" y="232">owners, filings, debt, risk, export</text><rect class="b" x="580" y="300" width="220" height="80" rx="12"/><text class="t" x="690" y="336">Ownership resolver</text><text class="s" x="690" y="362">parcel → owner → entity</text><path class="l" d="M690 300 L690 260"/><rect class="b" x="860" y="300" width="320" height="80" rx="12"/><text class="t" x="1020" y="336">Next.js map UI</text><text class="s" x="1020" y="362">search, filters, scores</text><path class="l" d="M1020 300 L1020 260"/></svg>
